# Blender 3.3.0
# www.blender.org
mtllib Platform.mtl
o BezierCircle
v -5.000000 0.169993 0.000000
v -4.954340 0.169993 -0.678303
v -4.821340 0.169993 -1.328921
v -4.606963 0.169993 -1.945889
v -4.317176 0.169993 -2.523242
v -3.957944 0.169993 -3.055012
v -3.535234 0.169993 -3.535235
v -3.055011 0.169993 -3.957945
v -2.523241 0.169993 -4.317177
v -1.945888 0.169993 -4.606964
v -1.328920 0.169993 -4.821341
v -0.678302 0.169993 -4.954341
v 0.000000 0.169993 -5.000000
v 0.678303 0.169993 -4.954340
v 1.328921 0.169993 -4.821340
v 1.945889 0.169993 -4.606963
v 2.523242 0.169993 -4.317176
v 3.055012 0.169993 -3.957944
v 3.535235 0.169993 -3.535234
v 3.957945 0.169993 -3.055011
v 4.317177 0.169993 -2.523241
v 4.606964 0.169993 -1.945888
v 4.821341 0.169993 -1.328920
v 4.954341 0.169993 -0.678302
v 5.000000 0.169993 0.000000
v 4.954340 0.169993 0.678303
v 4.821340 0.169993 1.328921
v 4.606963 0.169993 1.945889
v 4.317176 0.169993 2.523242
v 3.957944 0.169993 3.055012
v 3.535234 0.169993 3.535235
v 3.055011 0.169993 3.957945
v 2.523241 0.169993 4.317177
v 1.945888 0.169993 4.606964
v 1.328920 0.169993 4.821341
v 0.678302 0.169993 4.954341
v 0.000000 0.169993 5.000000
v -0.678303 0.169993 4.954340
v -1.328921 0.169993 4.821340
v -1.945889 0.169993 4.606963
v -2.523242 0.169993 4.317176
v -3.055012 0.169993 3.957944
v -3.535235 0.169993 3.535234
v -3.957945 0.169993 3.055011
v -4.317177 0.169993 2.523241
v -4.606964 0.169993 1.945888
v -4.821341 0.169993 1.328920
v -4.954341 0.169993 0.678302
v -5.000000 1.169993 0.000000
v -4.954340 1.169993 -0.678303
v -4.821340 1.169993 -1.328921
v -4.606963 1.169993 -1.945889
v -4.317176 1.169993 -2.523242
v -3.957944 1.169993 -3.055012
v -3.535234 1.169993 -3.535235
v -3.055011 1.169993 -3.957945
v -2.523241 1.169993 -4.317177
v -1.945888 1.169993 -4.606964
v -1.328920 1.169993 -4.821341
v -0.678302 1.169993 -4.954341
v 0.000000 1.169993 -5.000000
v 0.678303 1.169993 -4.954340
v 1.328921 1.169993 -4.821340
v 1.945889 1.169993 -4.606963
v 2.523242 1.169993 -4.317176
v 3.055012 1.169993 -3.957944
v 3.535235 1.169993 -3.535234
v 3.957945 1.169993 -3.055011
v 4.317177 1.169993 -2.523241
v 4.606964 1.169993 -1.945888
v 4.821341 1.169993 -1.328920
v 4.954341 1.169993 -0.678302
v 5.000000 1.169993 0.000000
v 4.954340 1.169993 0.678303
v 4.821340 1.169993 1.328921
v 4.606963 1.169993 1.945889
v 4.317176 1.169993 2.523242
v 3.957944 1.169993 3.055012
v 3.535234 1.169993 3.535235
v 3.055011 1.169993 3.957945
v 2.523241 1.169993 4.317177
v 1.945888 1.169993 4.606964
v 1.328920 1.169993 4.821341
v 0.678302 1.169993 4.954341
v 0.000000 1.169993 5.000000
v -0.678303 1.169993 4.954340
v -1.328921 1.169993 4.821340
v -1.945889 1.169993 4.606963
v -2.523242 1.169993 4.317176
v -3.055012 1.169993 3.957944
v -3.535235 1.169993 3.535234
v -3.957945 1.169993 3.055011
v -4.317177 1.169993 2.523241
v -4.606964 1.169993 1.945888
v -4.821341 1.169993 1.328920
v -4.954341 1.169993 0.678302
v -0.667346 1.169993 -4.799950
v -1.308635 1.169993 -4.516004
v -1.917328 1.169993 -4.156902
v -2.486702 1.169993 -3.729344
v -3.010032 1.169993 -3.240033
v -3.480595 1.169993 -2.695670
v -3.891666 1.169993 -2.102956
v -4.236522 1.169993 -1.468593
v -4.508439 1.169993 -0.799284
v -4.700692 1.169993 -0.101729
v -4.806560 1.169993 0.617369
v 0.019544 1.169993 -4.681275
v -0.623715 1.169993 -4.324923
v -1.244503 1.169993 -3.897032
v -1.835453 1.169993 -3.404907
v -2.389200 1.169993 -2.855852
v -2.898378 1.169993 -2.257169
v -3.355621 1.169993 -1.616162
v -3.753562 1.169993 -0.940134
v -4.084836 1.169993 -0.236389
v -4.342078 1.169993 0.487769
v -4.517921 1.169993 1.225038
v 0.702105 1.169993 -4.471767
v 0.078035 1.169993 -4.042323
v -0.536040 1.169993 -3.547888
v -1.132256 1.169993 -2.996231
v -1.702748 1.169993 -2.395123
v -2.239653 1.169993 -1.752333
v -2.735105 1.169993 -1.075633
v -3.181241 1.169993 -0.372793
v -3.570195 1.169993 0.348417
v -3.894104 1.169993 1.080227
v -4.145104 1.169993 1.814866
v 1.370144 1.169993 -4.180271
v 0.782957 1.169993 -3.679508
v 0.191704 1.169993 -3.122678
v -0.395395 1.169993 -2.517884
v -0.970120 1.169993 -1.873229
v -1.524251 1.169993 -1.196815
v -2.049569 1.169993 -0.496747
v -2.537854 1.169993 0.218874
v -2.980885 1.169993 0.941943
v -3.370442 1.169993 1.664357
v -3.698307 1.169993 2.378014
v 2.013647 1.169993 -3.815869
v 1.477715 1.169993 -3.248210
v 0.922809 1.169993 -2.635197
v 0.357363 1.169993 -1.985130
v -0.210192 1.169993 -1.306313
v -0.771422 1.169993 -0.607048
v -1.317895 1.169993 0.104362
v -1.841177 1.169993 0.819616
v -2.332835 1.169993 1.530409
v -2.784436 1.169993 2.228439
v -3.187548 1.169993 2.905406
v 2.622721 1.169993 -3.387801
v 2.149200 1.169993 -2.760455
v 1.641664 1.169993 -2.099633
v 1.108616 1.169993 -1.413703
v 0.558560 1.169993 -0.711036
v 0.000000 1.169993 0.000000
v -0.558560 1.169993 0.711036
v -1.108616 1.169993 1.413704
v -1.641664 1.169993 2.099633
v -2.149200 1.169993 2.760455
v -2.622721 1.169993 3.387802
v 3.187548 1.169993 -2.905405
v 2.784436 1.169993 -2.228439
v 2.332834 1.169993 -1.530408
v 1.841177 1.169993 -0.819615
v 1.317895 1.169993 -0.104362
v 0.771423 1.169993 0.607048
v 0.210192 1.169993 1.306313
v -0.357363 1.169993 1.985130
v -0.922809 1.169993 2.635197
v -1.477715 1.169993 3.248211
v -2.013647 1.169993 3.815869
v 3.698307 1.169993 -2.378014
v 3.370442 1.169993 -1.664357
v 2.980885 1.169993 -0.941942
v 2.537854 1.169993 -0.218874
v 2.049570 1.169993 0.496747
v 1.524252 1.169993 1.196815
v 0.970121 1.169993 1.873229
v 0.395395 1.169993 2.517884
v -0.191704 1.169993 3.122679
v -0.782957 1.169993 3.679508
v -1.370144 1.169993 4.180271
v 4.145104 1.169993 -1.814866
v 3.894104 1.169993 -1.080227
v 3.570195 1.169993 -0.348417
v 3.181241 1.169993 0.372793
v 2.735105 1.169993 1.075633
v 2.239653 1.169993 1.752333
v 1.702749 1.169993 2.395123
v 1.132256 1.169993 2.996231
v 0.536040 1.169993 3.547888
v -0.078035 1.169993 4.042323
v -0.702105 1.169993 4.471767
v 4.517921 1.169993 -1.225037
v 4.342078 1.169993 -0.487769
v 4.084836 1.169993 0.236389
v 3.753562 1.169993 0.940134
v 3.355621 1.169993 1.616162
v 2.898379 1.169993 2.257169
v 2.389201 1.169993 2.855852
v 1.835454 1.169993 3.404908
v 1.244503 1.169993 3.897033
v 0.623715 1.169993 4.324923
v -0.019545 1.169993 4.681275
v 4.806560 1.169993 -0.617368
v 4.700692 1.169993 0.101730
v 4.508439 1.169993 0.799284
v 4.236522 1.169993 1.468593
v 3.891667 1.169993 2.102956
v 3.480595 1.169993 2.695670
v 3.010032 1.169993 3.240033
v 2.486702 1.169993 3.729345
v 1.917329 1.169993 4.156902
v 1.308635 1.169993 4.516005
v 0.667345 1.169993 4.799950
v -0.667346 0.169993 -4.799950
v -1.308635 0.169993 -4.516004
v -1.917328 0.169993 -4.156902
v -2.486702 0.169993 -3.729344
v -3.010032 0.169993 -3.240033
v -3.480595 0.169993 -2.695670
v -3.891666 0.169993 -2.102956
v -4.236522 0.169993 -1.468593
v -4.508439 0.169993 -0.799284
v -4.700692 0.169993 -0.101729
v -4.806560 0.169993 0.617369
v 0.019544 0.169993 -4.681275
v -0.623715 0.169993 -4.324923
v -1.244503 0.169993 -3.897032
v -1.835453 0.169993 -3.404907
v -2.389200 0.169993 -2.855852
v -2.898378 0.169993 -2.257169
v -3.355621 0.169993 -1.616162
v -3.753562 0.169993 -0.940134
v -4.084836 0.169993 -0.236389
v -4.342078 0.169993 0.487769
v -4.517921 0.169993 1.225038
v 0.702105 0.169993 -4.471767
v 0.078035 0.169993 -4.042323
v -0.536040 0.169993 -3.547888
v -1.132256 0.169993 -2.996231
v -1.702748 0.169993 -2.395123
v -2.239653 0.169993 -1.752333
v -2.735105 0.169993 -1.075633
v -3.181241 0.169993 -0.372793
v -3.570195 0.169993 0.348417
v -3.894104 0.169993 1.080227
v -4.145104 0.169993 1.814866
v 1.370144 0.169993 -4.180271
v 0.782957 0.169993 -3.679508
v 0.191704 0.169993 -3.122678
v -0.395395 0.169993 -2.517884
v -0.970120 0.169993 -1.873229
v -1.524251 0.169993 -1.196815
v -2.049569 0.169993 -0.496747
v -2.537854 0.169993 0.218874
v -2.980885 0.169993 0.941943
v -3.370442 0.169993 1.664357
v -3.698307 0.169993 2.378014
v 2.013647 0.169993 -3.815869
v 1.477715 0.169993 -3.248210
v 0.922809 0.169993 -2.635197
v 0.357363 0.169993 -1.985130
v -0.210192 0.169993 -1.306313
v -0.771422 0.169993 -0.607048
v -1.317895 0.169993 0.104362
v -1.841177 0.169993 0.819616
v -2.332835 0.169993 1.530409
v -2.784436 0.169993 2.228439
v -3.187548 0.169993 2.905406
v 2.622721 0.169993 -3.387801
v 2.149200 0.169993 -2.760455
v 1.641664 0.169993 -2.099633
v 1.108616 0.169993 -1.413703
v 0.558560 0.169993 -0.711036
v 0.000000 0.169993 0.000000
v -0.558560 0.169993 0.711036
v -1.108616 0.169993 1.413704
v -1.641664 0.169993 2.099633
v -2.149200 0.169993 2.760455
v -2.622721 0.169993 3.387802
v 3.187548 0.169993 -2.905405
v 2.784436 0.169993 -2.228439
v 2.332834 0.169993 -1.530408
v 1.841177 0.169993 -0.819615
v 1.317895 0.169993 -0.104362
v 0.771423 0.169993 0.607048
v 0.210192 0.169993 1.306313
v -0.357363 0.169993 1.985130
v -0.922809 0.169993 2.635197
v -1.477715 0.169993 3.248211
v -2.013647 0.169993 3.815869
v 3.698307 0.169993 -2.378014
v 3.370442 0.169993 -1.664357
v 2.980885 0.169993 -0.941942
v 2.537854 0.169993 -0.218874
v 2.049570 0.169993 0.496747
v 1.524252 0.169993 1.196815
v 0.970121 0.169993 1.873229
v 0.395395 0.169993 2.517884
v -0.191704 0.169993 3.122679
v -0.782957 0.169993 3.679508
v -1.370144 0.169993 4.180271
v 4.145104 0.169993 -1.814866
v 3.894104 0.169993 -1.080227
v 3.570195 0.169993 -0.348417
v 3.181241 0.169993 0.372793
v 2.735105 0.169993 1.075633
v 2.239653 0.169993 1.752333
v 1.702749 0.169993 2.395123
v 1.132256 0.169993 2.996231
v 0.536040 0.169993 3.547888
v -0.078035 0.169993 4.042323
v -0.702105 0.169993 4.471767
v 4.517921 0.169993 -1.225037
v 4.342078 0.169993 -0.487769
v 4.084836 0.169993 0.236389
v 3.753562 0.169993 0.940134
v 3.355621 0.169993 1.616162
v 2.898379 0.169993 2.257169
v 2.389201 0.169993 2.855852
v 1.835454 0.169993 3.404908
v 1.244503 0.169993 3.897033
v 0.623715 0.169993 4.324923
v -0.019545 0.169993 4.681275
v 4.806560 0.169993 -0.617368
v 4.700692 0.169993 0.101730
v 4.508439 0.169993 0.799284
v 4.236522 0.169993 1.468593
v 3.891667 0.169993 2.102956
v 3.480595 0.169993 2.695670
v 3.010032 0.169993 3.240033
v 2.486702 0.169993 3.729345
v 1.917329 0.169993 4.156902
v 1.308635 0.169993 4.516005
v 0.667345 0.169993 4.799950
vn -0.8286 -0.0000 -0.5598
vn 0.5598 -0.0000 0.8286
vn 0.7506 -0.0000 -0.6607
vn -0.9446 -0.0000 0.3282
vn -0.7506 -0.0000 -0.6607
vn 0.4486 -0.0000 0.8937
vn 0.8286 -0.0000 -0.5598
vn -0.9797 -0.0000 0.2003
vn -0.6607 -0.0000 -0.7506
vn 0.3282 -0.0000 0.9446
vn 0.8937 -0.0000 -0.4486
vn -0.9977 -0.0000 0.0672
vn -0.5598 -0.0000 -0.8286
vn 0.2003 -0.0000 0.9797
vn 0.9446 -0.0000 -0.3282
vn -0.4486 -0.0000 -0.8937
vn 0.0672 -0.0000 0.9977
vn 0.9797 -0.0000 -0.2003
vn -0.3282 -0.0000 -0.9446
vn -0.0672 -0.0000 0.9977
vn 0.9977 -0.0000 -0.0672
vn -0.2003 -0.0000 -0.9797
vn -0.2003 -0.0000 0.9797
vn 0.9977 -0.0000 0.0672
vn -0.0672 -0.0000 -0.9977
vn -0.3282 -0.0000 0.9446
vn 0.9797 -0.0000 0.2003
vn 0.0672 -0.0000 -0.9977
vn -0.4486 -0.0000 0.8937
vn 0.9446 -0.0000 0.3282
vn 0.2003 -0.0000 -0.9797
vn -0.5598 -0.0000 0.8286
vn -0.9977 -0.0000 -0.0672
vn 0.8937 -0.0000 0.4486
vn 0.3282 -0.0000 -0.9446
vn -0.6607 -0.0000 0.7506
vn -0.9797 -0.0000 -0.2003
vn 0.8286 -0.0000 0.5598
vn 0.4486 -0.0000 -0.8937
vn -0.7506 -0.0000 0.6607
vn -0.9446 -0.0000 -0.3282
vn 0.7506 -0.0000 0.6607
vn 0.5598 -0.0000 -0.8286
vn -0.8286 -0.0000 0.5598
vn -0.8937 -0.0000 -0.4486
vn 0.6607 -0.0000 0.7506
vn 0.6607 -0.0000 -0.7506
vn -0.8937 -0.0000 0.4486
vn -0.0000 1.0000 -0.0000
vn -0.0000 -1.0000 -0.0000
s 0
f 5//1 53//1 54//1 6//1
f 32//2 80//2 81//2 33//2
f 19//3 67//3 68//3 20//3
f 46//4 94//4 95//4 47//4
f 6//5 54//5 55//5 7//5
f 33//6 81//6 82//6 34//6
f 20//7 68//7 69//7 21//7
f 47//8 95//8 96//8 48//8
f 7//9 55//9 56//9 8//9
f 34//10 82//10 83//10 35//10
f 21//11 69//11 70//11 22//11
f 48//12 96//12 49//12 1//12
f 8//13 56//13 57//13 9//13
f 35//14 83//14 84//14 36//14
f 22//15 70//15 71//15 23//15
f 9//16 57//16 58//16 10//16
f 36//17 84//17 85//17 37//17
f 23//18 71//18 72//18 24//18
f 10//19 58//19 59//19 11//19
f 37//20 85//20 86//20 38//20
f 24//21 72//21 73//21 25//21
f 11//22 59//22 60//22 12//22
f 38//23 86//23 87//23 39//23
f 25//24 73//24 74//24 26//24
f 12//25 60//25 61//25 13//25
f 39//26 87//26 88//26 40//26
f 26//27 74//27 75//27 27//27
f 13//28 61//28 62//28 14//28
f 40//29 88//29 89//29 41//29
f 27//30 75//30 76//30 28//30
f 14//31 62//31 63//31 15//31
f 41//32 89//32 90//32 42//32
f 1//33 49//33 50//33 2//33
f 28//34 76//34 77//34 29//34
f 15//35 63//35 64//35 16//35
f 42//36 90//36 91//36 43//36
f 2//37 50//37 51//37 3//37
f 29//38 77//38 78//38 30//38
f 16//39 64//39 65//39 17//39
f 43//40 91//40 92//40 44//40
f 3//41 51//41 52//41 4//41
f 30//42 78//42 79//42 31//42
f 17//43 65//43 66//43 18//43
f 44//44 92//44 93//44 45//44
f 4//45 52//45 53//45 5//45
f 31//46 79//46 80//46 32//46
f 18//47 66//47 67//47 19//47
f 45//48 93//48 94//48 46//48
f 60//49 59//49 97//49 61//49
f 61//49 97//49 108//49 62//49
f 62//49 108//49 119//49 63//49
f 63//49 119//49 130//49 64//49
f 64//49 130//49 141//49 65//49
f 65//49 141//49 152//49 66//49
f 66//49 152//49 163//49 67//49
f 67//49 163//49 174//49 68//49
f 68//49 174//49 185//49 69//49
f 69//49 185//49 196//49 70//49
f 70//49 196//49 207//49 71//49
f 71//49 207//49 73//49 72//49
f 59//49 58//49 98//49 97//49
f 97//49 98//49 109//49 108//49
f 108//49 109//49 120//49 119//49
f 119//49 120//49 131//49 130//49
f 130//49 131//49 142//49 141//49
f 141//49 142//49 153//49 152//49
f 152//49 153//49 164//49 163//49
f 163//49 164//49 175//49 174//49
f 174//49 175//49 186//49 185//49
f 185//49 186//49 197//49 196//49
f 196//49 197//49 208//49 207//49
f 207//49 208//49 74//49 73//49
f 58//49 57//49 99//49 98//49
f 98//49 99//49 110//49 109//49
f 109//49 110//49 121//49 120//49
f 120//49 121//49 132//49 131//49
f 131//49 132//49 143//49 142//49
f 142//49 143//49 154//49 153//49
f 153//49 154//49 165//49 164//49
f 164//49 165//49 176//49 175//49
f 175//49 176//49 187//49 186//49
f 186//49 187//49 198//49 197//49
f 197//49 198//49 209//49 208//49
f 208//49 209//49 75//49 74//49
f 57//49 56//49 100//49 99//49
f 99//49 100//49 111//49 110//49
f 110//49 111//49 122//49 121//49
f 121//49 122//49 133//49 132//49
f 132//49 133//49 144//49 143//49
f 143//49 144//49 155//49 154//49
f 154//49 155//49 166//49 165//49
f 165//49 166//49 177//49 176//49
f 176//49 177//49 188//49 187//49
f 187//49 188//49 199//49 198//49
f 198//49 199//49 210//49 209//49
f 209//49 210//49 76//49 75//49
f 56//49 55//49 101//49 100//49
f 100//49 101//49 112//49 111//49
f 111//49 112//49 123//49 122//49
f 122//49 123//49 134//49 133//49
f 133//49 134//49 145//49 144//49
f 144//49 145//49 156//49 155//49
f 155//49 156//49 167//49 166//49
f 166//49 167//49 178//49 177//49
f 177//49 178//49 189//49 188//49
f 188//49 189//49 200//49 199//49
f 199//49 200//49 211//49 210//49
f 210//49 211//49 77//49 76//49
f 55//49 54//49 102//49 101//49
f 101//49 102//49 113//49 112//49
f 112//49 113//49 124//49 123//49
f 123//49 124//49 135//49 134//49
f 134//49 135//49 146//49 145//49
f 145//49 146//49 157//49 156//49
f 156//49 157//49 168//49 167//49
f 167//49 168//49 179//49 178//49
f 178//49 179//49 190//49 189//49
f 189//49 190//49 201//49 200//49
f 200//49 201//49 212//49 211//49
f 211//49 212//49 78//49 77//49
f 54//49 53//49 103//49 102//49
f 102//49 103//49 114//49 113//49
f 113//49 114//49 125//49 124//49
f 124//49 125//49 136//49 135//49
f 135//49 136//49 147//49 146//49
f 146//49 147//49 158//49 157//49
f 157//49 158//49 169//49 168//49
f 168//49 169//49 180//49 179//49
f 179//49 180//49 191//49 190//49
f 190//49 191//49 202//49 201//49
f 201//49 202//49 213//49 212//49
f 212//49 213//49 79//49 78//49
f 53//49 52//49 104//49 103//49
f 103//49 104//49 115//49 114//49
f 114//49 115//49 126//49 125//49
f 125//49 126//49 137//49 136//49
f 136//49 137//49 148//49 147//49
f 147//49 148//49 159//49 158//49
f 158//49 159//49 170//49 169//49
f 169//49 170//49 181//49 180//49
f 180//49 181//49 192//49 191//49
f 191//49 192//49 203//49 202//49
f 202//49 203//49 214//49 213//49
f 213//49 214//49 80//49 79//49
f 52//49 51//49 105//49 104//49
f 104//49 105//49 116//49 115//49
f 115//49 116//49 127//49 126//49
f 126//49 127//49 138//49 137//49
f 137//49 138//49 149//49 148//49
f 148//49 149//49 160//49 159//49
f 159//49 160//49 171//49 170//49
f 170//49 171//49 182//49 181//49
f 181//49 182//49 193//49 192//49
f 192//49 193//49 204//49 203//49
f 203//49 204//49 215//49 214//49
f 214//49 215//49 81//49 80//49
f 51//49 50//49 106//49 105//49
f 105//49 106//49 117//49 116//49
f 116//49 117//49 128//49 127//49
f 127//49 128//49 139//49 138//49
f 138//49 139//49 150//49 149//49
f 149//49 150//49 161//49 160//49
f 160//49 161//49 172//49 171//49
f 171//49 172//49 183//49 182//49
f 182//49 183//49 194//49 193//49
f 193//49 194//49 205//49 204//49
f 204//49 205//49 216//49 215//49
f 215//49 216//49 82//49 81//49
f 50//49 49//49 107//49 106//49
f 106//49 107//49 118//49 117//49
f 117//49 118//49 129//49 128//49
f 128//49 129//49 140//49 139//49
f 139//49 140//49 151//49 150//49
f 150//49 151//49 162//49 161//49
f 161//49 162//49 173//49 172//49
f 172//49 173//49 184//49 183//49
f 183//49 184//49 195//49 194//49
f 194//49 195//49 206//49 205//49
f 205//49 206//49 217//49 216//49
f 216//49 217//49 83//49 82//49
f 49//49 96//49 95//49 107//49
f 107//49 95//49 94//49 118//49
f 118//49 94//49 93//49 129//49
f 129//49 93//49 92//49 140//49
f 140//49 92//49 91//49 151//49
f 151//49 91//49 90//49 162//49
f 162//49 90//49 89//49 173//49
f 173//49 89//49 88//49 184//49
f 184//49 88//49 87//49 195//49
f 195//49 87//49 86//49 206//49
f 206//49 86//49 85//49 217//49
f 217//49 85//49 84//49 83//49
f 11//50 12//50 13//50 218//50
f 218//50 13//50 14//50 229//50
f 229//50 14//50 15//50 240//50
f 240//50 15//50 16//50 251//50
f 251//50 16//50 17//50 262//50
f 262//50 17//50 18//50 273//50
f 273//50 18//50 19//50 284//50
f 284//50 19//50 20//50 295//50
f 295//50 20//50 21//50 306//50
f 306//50 21//50 22//50 317//50
f 317//50 22//50 23//50 328//50
f 328//50 23//50 24//50 25//50
f 10//50 11//50 218//50 219//50
f 219//50 218//50 229//50 230//50
f 230//50 229//50 240//50 241//50
f 241//50 240//50 251//50 252//50
f 252//50 251//50 262//50 263//50
f 263//50 262//50 273//50 274//50
f 274//50 273//50 284//50 285//50
f 285//50 284//50 295//50 296//50
f 296//50 295//50 306//50 307//50
f 307//50 306//50 317//50 318//50
f 318//50 317//50 328//50 329//50
f 329//50 328//50 25//50 26//50
f 9//50 10//50 219//50 220//50
f 220//50 219//50 230//50 231//50
f 231//50 230//50 241//50 242//50
f 242//50 241//50 252//50 253//50
f 253//50 252//50 263//50 264//50
f 264//50 263//50 274//50 275//50
f 275//50 274//50 285//50 286//50
f 286//50 285//50 296//50 297//50
f 297//50 296//50 307//50 308//50
f 308//50 307//50 318//50 319//50
f 319//50 318//50 329//50 330//50
f 330//50 329//50 26//50 27//50
f 8//50 9//50 220//50 221//50
f 221//50 220//50 231//50 232//50
f 232//50 231//50 242//50 243//50
f 243//50 242//50 253//50 254//50
f 254//50 253//50 264//50 265//50
f 265//50 264//50 275//50 276//50
f 276//50 275//50 286//50 287//50
f 287//50 286//50 297//50 298//50
f 298//50 297//50 308//50 309//50
f 309//50 308//50 319//50 320//50
f 320//50 319//50 330//50 331//50
f 331//50 330//50 27//50 28//50
f 7//50 8//50 221//50 222//50
f 222//50 221//50 232//50 233//50
f 233//50 232//50 243//50 244//50
f 244//50 243//50 254//50 255//50
f 255//50 254//50 265//50 266//50
f 266//50 265//50 276//50 277//50
f 277//50 276//50 287//50 288//50
f 288//50 287//50 298//50 299//50
f 299//50 298//50 309//50 310//50
f 310//50 309//50 320//50 321//50
f 321//50 320//50 331//50 332//50
f 332//50 331//50 28//50 29//50
f 6//50 7//50 222//50 223//50
f 223//50 222//50 233//50 234//50
f 234//50 233//50 244//50 245//50
f 245//50 244//50 255//50 256//50
f 256//50 255//50 266//50 267//50
f 267//50 266//50 277//50 278//50
f 278//50 277//50 288//50 289//50
f 289//50 288//50 299//50 300//50
f 300//50 299//50 310//50 311//50
f 311//50 310//50 321//50 322//50
f 322//50 321//50 332//50 333//50
f 333//50 332//50 29//50 30//50
f 5//50 6//50 223//50 224//50
f 224//50 223//50 234//50 235//50
f 235//50 234//50 245//50 246//50
f 246//50 245//50 256//50 257//50
f 257//50 256//50 267//50 268//50
f 268//50 267//50 278//50 279//50
f 279//50 278//50 289//50 290//50
f 290//50 289//50 300//50 301//50
f 301//50 300//50 311//50 312//50
f 312//50 311//50 322//50 323//50
f 323//50 322//50 333//50 334//50
f 334//50 333//50 30//50 31//50
f 4//50 5//50 224//50 225//50
f 225//50 224//50 235//50 236//50
f 236//50 235//50 246//50 247//50
f 247//50 246//50 257//50 258//50
f 258//50 257//50 268//50 269//50
f 269//50 268//50 279//50 280//50
f 280//50 279//50 290//50 291//50
f 291//50 290//50 301//50 302//50
f 302//50 301//50 312//50 313//50
f 313//50 312//50 323//50 324//50
f 324//50 323//50 334//50 335//50
f 335//50 334//50 31//50 32//50
f 3//50 4//50 225//50 226//50
f 226//50 225//50 236//50 237//50
f 237//50 236//50 247//50 248//50
f 248//50 247//50 258//50 259//50
f 259//50 258//50 269//50 270//50
f 270//50 269//50 280//50 281//50
f 281//50 280//50 291//50 292//50
f 292//50 291//50 302//50 303//50
f 303//50 302//50 313//50 314//50
f 314//50 313//50 324//50 325//50
f 325//50 324//50 335//50 336//50
f 336//50 335//50 32//50 33//50
f 2//50 3//50 226//50 227//50
f 227//50 226//50 237//50 238//50
f 238//50 237//50 248//50 249//50
f 249//50 248//50 259//50 260//50
f 260//50 259//50 270//50 271//50
f 271//50 270//50 281//50 282//50
f 282//50 281//50 292//50 293//50
f 293//50 292//50 303//50 304//50
f 304//50 303//50 314//50 315//50
f 315//50 314//50 325//50 326//50
f 326//50 325//50 336//50 337//50
f 337//50 336//50 33//50 34//50
f 1//50 2//50 227//50 228//50
f 228//50 227//50 238//50 239//50
f 239//50 238//50 249//50 250//50
f 250//50 249//50 260//50 261//50
f 261//50 260//50 271//50 272//50
f 272//50 271//50 282//50 283//50
f 283//50 282//50 293//50 294//50
f 294//50 293//50 304//50 305//50
f 305//50 304//50 315//50 316//50
f 316//50 315//50 326//50 327//50
f 327//50 326//50 337//50 338//50
f 338//50 337//50 34//50 35//50
f 48//50 1//50 228//50 47//50
f 47//50 228//50 239//50 46//50
f 46//50 239//50 250//50 45//50
f 45//50 250//50 261//50 44//50
f 44//50 261//50 272//50 43//50
f 43//50 272//50 283//50 42//50
f 42//50 283//50 294//50 41//50
f 41//50 294//50 305//50 40//50
f 40//50 305//50 316//50 39//50
f 39//50 316//50 327//50 38//50
f 38//50 327//50 338//50 37//50
f 37//50 338//50 35//50 36//50
