# Blender 3.3.0
# www.blender.org
mtllib GateWall.mtl
o Cube.002
v -1.244818 -0.047265 0.171639
v -1.244818 0.296014 0.171639
v -1.244818 -0.047265 -0.171639
v -1.244818 0.296014 -0.171639
v -0.812517 -0.047265 0.171639
v -0.812517 0.296014 0.171639
v -0.812517 -0.047265 -0.171639
v -0.812517 0.296014 -0.171639
v -1.244818 2.817571 0.171639
v -1.244818 2.817571 -0.171639
v -0.730202 2.817571 -0.171639
v -0.730202 2.817571 0.171639
v -1.244818 2.368266 0.171639
v -1.244818 2.368266 -0.171639
v -0.722437 2.306446 0.171639
v -0.722437 2.306446 -0.171639
v 0.000000 2.817571 -0.171639
v 0.000000 2.817571 0.171639
v 0.000000 2.532168 0.171639
v 0.000000 2.532168 -0.171639
v -1.244818 1.912087 -0.171639
v -0.812517 1.912087 -0.171639
v -1.244818 1.912087 0.171639
v -0.812517 1.912087 0.171639
v -1.244818 4.278918 0.171639
v -1.244818 4.278918 -0.171639
v -0.730202 4.278918 -0.171639
v -0.730202 4.278918 0.171639
v 0.000000 4.278918 -0.171639
v 0.000000 4.278918 0.171639
v -2.662479 -0.047265 -0.171639
v -2.662479 -0.047265 0.171639
v -2.662479 0.296014 0.171639
v -2.662479 0.296014 -0.171639
v -2.662479 2.817571 0.171639
v -2.662479 2.817571 -0.171639
v -2.662479 2.368266 0.171639
v -2.662479 1.912087 -0.171639
v -2.662479 1.912087 0.171639
v -2.662479 2.368266 -0.171639
v -2.662479 4.278918 0.171639
v -2.662479 4.278918 -0.171639
v -2.662479 4.696184 -0.171639
v -1.244818 4.696184 -0.171639
v -1.244818 4.696184 0.171639
v -0.730202 4.696184 -0.171639
v -0.730202 4.696184 0.171639
v 0.000000 4.696184 -0.171639
v 0.000000 4.696184 0.171639
v -2.662479 4.696184 0.171639
v -1.244818 0.038238 0.171639
v -1.244818 0.038238 -0.171639
v -0.812517 0.038238 -0.171639
v -0.812517 0.038238 0.171639
v -2.662479 0.038238 0.171639
v -2.662479 0.038238 -0.171639
v 0.000000 0.038238 -0.171639
v 0.000000 -0.047265 -0.171639
v 0.000000 -0.047265 0.171639
v 0.000000 0.038238 0.171639
v 1.244818 -0.047265 0.171639
v 1.244818 0.296014 0.171639
v 1.244818 -0.047265 -0.171639
v 1.244818 0.296014 -0.171639
v 0.812517 -0.047265 0.171639
v 0.812517 0.296014 0.171639
v 0.812517 -0.047265 -0.171639
v 0.812517 0.296014 -0.171639
v 1.244818 2.817571 0.171639
v 1.244818 2.817571 -0.171639
v 0.730202 2.817571 -0.171639
v 0.730202 2.817571 0.171639
v 1.244818 2.368266 0.171639
v 1.244818 2.368266 -0.171639
v 0.722437 2.306446 0.171639
v 0.722437 2.306446 -0.171639
v 1.244818 1.912087 -0.171639
v 0.812517 1.912087 -0.171639
v 1.244818 1.912087 0.171639
v 0.812517 1.912087 0.171639
v 1.244818 4.278918 0.171639
v 1.244818 4.278918 -0.171639
v 0.730202 4.278918 -0.171639
v 0.730202 4.278918 0.171639
v 2.662479 -0.047265 -0.171639
v 2.662479 -0.047265 0.171639
v 2.662479 0.296014 0.171639
v 2.662479 0.296014 -0.171639
v 2.662479 2.817571 0.171639
v 2.662479 2.817571 -0.171639
v 2.662479 2.368266 0.171639
v 2.662479 1.912087 -0.171639
v 2.662479 1.912087 0.171639
v 2.662479 2.368266 -0.171639
v 2.662479 4.278918 0.171639
v 2.662479 4.278918 -0.171639
v 2.662479 4.696184 -0.171639
v 1.244818 4.696184 -0.171639
v 1.244818 4.696184 0.171639
v 0.730202 4.696184 -0.171639
v 0.730202 4.696184 0.171639
v 2.662479 4.696184 0.171639
v 1.244818 0.038238 0.171639
v 1.244818 0.038238 -0.171639
v 0.812517 0.038238 -0.171639
v 0.812517 0.038238 0.171639
v 2.662479 0.038238 0.171639
v 2.662479 0.038238 -0.171639
vn -0.0000 -0.0000 1.0000
vn -0.0000 -0.0000 -1.0000
vn 1.0000 -0.0000 -0.0000
vn -0.0000 -1.0000 -0.0000
vn 0.2982 -0.9545 -0.0000
vn 0.9749 -0.2227 -0.0000
vn -1.0000 -0.0000 -0.0000
vn -0.0000 1.0000 -0.0000
vn -0.2982 -0.9545 -0.0000
vn -0.9749 -0.2227 -0.0000
vt 0.125000 0.750000
vt 0.375000 1.000000
vt 0.625000 1.000000
vt 0.125000 0.500000
vt 0.375000 0.250000
vt 0.625000 0.250000
vt 0.375000 0.750000
vt 0.625000 0.750000
vt 0.375000 0.500000
vt 0.625000 0.500000
vt 0.625000 1.000000
vt 0.625000 0.250000
vt 0.625000 0.500000
vt 0.625000 0.750000
vt 0.625000 1.000000
vt 0.625000 0.250000
vt 0.625000 0.750000
vt 0.625000 0.500000
vt 0.625000 0.500000
vt 0.625000 0.750000
vt 0.625000 0.750000
vt 0.625000 0.500000
vt 0.625000 0.250000
vt 0.625000 0.500000
vt 0.625000 1.000000
vt 0.625000 0.750000
vt 0.625000 1.000000
vt 0.625000 0.250000
vt 0.625000 0.500000
vt 0.625000 0.750000
vt 0.625000 0.500000
vt 0.625000 0.750000
vt 0.125000 0.500000
vt 0.375000 0.250000
vt 0.125000 0.750000
vt 0.375000 1.000000
vt 0.375000 0.000000
vt 0.625000 0.000000
vt 0.625000 1.000000
vt 0.625000 0.250000
vt 0.625000 0.000000
vt 0.625000 1.000000
vt 0.625000 0.250000
vt 0.625000 0.000000
vt 0.625000 1.000000
vt 0.625000 0.250000
vt 0.625000 0.000000
vt 0.625000 1.000000
vt 0.625000 0.250000
vt 0.625000 1.000000
vt 0.625000 0.000000
vt 0.625000 0.250000
vt 0.875000 0.500000
vt 0.625000 0.250000
vt 0.875000 0.500000
vt 0.625000 0.250000
vt 0.875000 0.750000
vt 0.625000 1.000000
vt 0.625000 0.500000
vt 0.625000 0.750000
vt 0.625000 0.500000
vt 0.625000 0.750000
vt 0.625000 1.000000
vt 0.875000 0.750000
vt 0.625000 0.000000
vt 0.437270 1.000000
vt 0.437270 0.250000
vt 0.437270 0.500000
vt 0.437270 0.750000
vt 0.437270 1.000000
vt 0.437270 0.000000
vt 0.437270 0.250000
vt 0.437270 0.500000
vt 0.375000 0.500000
vt 0.375000 0.750000
vt 0.437270 0.750000
vt 0.125000 0.750000
vt 0.375000 1.000000
vt 0.625000 1.000000
vt 0.125000 0.500000
vt 0.375000 0.250000
vt 0.625000 0.250000
vt 0.375000 0.750000
vt 0.625000 0.750000
vt 0.375000 0.500000
vt 0.625000 0.500000
vt 0.625000 1.000000
vt 0.625000 0.250000
vt 0.625000 0.500000
vt 0.625000 0.750000
vt 0.625000 1.000000
vt 0.625000 0.250000
vt 0.625000 0.750000
vt 0.625000 0.500000
vt 0.625000 0.250000
vt 0.625000 0.500000
vt 0.625000 1.000000
vt 0.625000 0.750000
vt 0.625000 1.000000
vt 0.625000 0.250000
vt 0.625000 0.500000
vt 0.625000 0.750000
vt 0.125000 0.500000
vt 0.375000 0.250000
vt 0.125000 0.750000
vt 0.375000 1.000000
vt 0.375000 0.000000
vt 0.625000 0.000000
vt 0.625000 1.000000
vt 0.625000 0.250000
vt 0.625000 0.000000
vt 0.625000 1.000000
vt 0.625000 0.250000
vt 0.625000 0.000000
vt 0.625000 1.000000
vt 0.625000 0.250000
vt 0.625000 0.000000
vt 0.625000 1.000000
vt 0.625000 0.250000
vt 0.625000 1.000000
vt 0.625000 0.000000
vt 0.625000 0.250000
vt 0.875000 0.500000
vt 0.625000 0.250000
vt 0.875000 0.500000
vt 0.625000 0.250000
vt 0.875000 0.750000
vt 0.625000 1.000000
vt 0.625000 0.500000
vt 0.625000 0.750000
vt 0.625000 1.000000
vt 0.875000 0.750000
vt 0.625000 0.000000
vt 0.437270 1.000000
vt 0.437270 0.250000
vt 0.437270 0.500000
vt 0.437270 0.750000
vt 0.437270 1.000000
vt 0.437270 0.000000
vt 0.437270 0.250000
s 0
f 9/11/1 25/27/1 41/50/1 35/42/1
f 52/67/2 4/6/2 8/10/2 53/68/2
f 53/68/3 8/10/3 6/8/3 54/69/3
f 54/69/1 6/8/1 2/3/1 51/66/1
f 3/4/4 7/9/4 5/7/4 1/1/4
f 29/31/2 27/29/2 46/59/2 48/61/2
f 17/19/2 11/13/2 27/29/2 29/31/2
f 13/15/1 15/17/1 12/14/1 9/11/1
f 16/18/2 14/16/2 10/12/2 11/13/2
f 15/17/5 16/18/5 20/22/5 19/21/5
f 24/26/6 22/24/6 16/18/6 15/17/6
f 22/24/2 21/23/2 14/16/2 16/18/2
f 23/25/1 24/26/1 15/17/1 13/15/1
f 23/25/1 13/15/1 37/45/1 39/48/1
f 19/21/3 20/22/3 17/19/3 18/20/3
f 12/14/1 15/17/1 19/21/1 18/20/1
f 9/11/1 12/14/1 28/30/1 25/27/1
f 16/18/2 11/13/2 17/19/2 20/22/2
f 52/67/2 3/5/2 31/34/2 56/72/2
f 2/3/1 6/8/1 24/26/1 23/25/1
f 8/10/2 4/6/2 21/23/2 22/24/2
f 6/8/3 8/10/3 22/24/3 24/26/3
f 41/50/1 25/27/1 45/58/1 50/63/1
f 27/29/2 26/28/2 44/56/2 46/59/2
f 11/13/2 10/12/2 26/28/2 27/29/2
f 12/14/1 18/20/1 30/32/1 28/30/1
f 26/28/2 10/12/2 36/43/2 42/52/2
f 18/20/3 17/19/3 29/31/3 30/32/3
f 55/71/7 33/38/7 34/40/7 56/72/7
f 40/49/7 37/44/7 35/41/7 36/43/7
f 38/46/7 39/47/7 37/44/7 40/49/7
f 34/40/7 33/38/7 39/47/7 38/46/7
f 36/43/7 35/41/7 41/51/7 42/52/7
f 21/23/2 4/6/2 34/40/2 38/46/2
f 3/4/4 1/1/4 32/35/4 31/33/4
f 10/12/2 14/16/2 40/49/2 36/43/2
f 2/3/1 23/25/1 39/48/1 33/39/1
f 51/66/1 2/3/1 33/39/1 55/70/1
f 14/16/2 21/23/2 38/46/2 40/49/2
f 13/15/1 9/11/1 35/42/1 37/45/1
f 45/57/8 44/55/8 43/53/8 50/64/8
f 46/59/8 44/55/8 45/57/8 47/60/8
f 46/59/8 47/60/8 49/62/8 48/61/8
f 30/32/3 29/31/3 48/61/3 49/62/3
f 28/30/1 30/32/1 49/62/1 47/60/1
f 26/28/2 42/52/2 43/54/2 44/56/2
f 42/52/7 41/51/7 50/65/7 43/54/7
f 25/27/1 28/30/1 47/60/1 45/58/1
f 1/2/1 51/66/1 55/70/1 32/36/1
f 32/37/7 55/71/7 56/72/7 31/34/7
f 4/6/2 52/67/2 56/72/2 34/40/2
f 5/7/1 54/69/1 51/66/1 1/2/1
f 5/7/4 7/9/4 58/74/4 59/75/4
f 3/5/2 52/67/2 53/68/2 7/9/2
f 58/74/3 57/73/3 60/76/3 59/75/3
f 53/68/8 54/69/8 60/76/8 57/73/8
f 7/9/2 53/68/2 57/73/2 58/74/2
f 54/69/1 5/7/1 59/75/1 60/76/1
f 69/87/1 89/112/1 95/120/1 81/99/1
f 104/135/2 105/136/2 68/86/2 64/82/2
f 105/136/7 106/137/7 66/84/7 68/86/7
f 106/137/1 103/134/1 62/79/1 66/84/1
f 63/80/4 61/77/4 65/83/4 67/85/4
f 29/31/2 48/61/2 100/129/2 83/101/2
f 17/19/2 29/31/2 83/101/2 71/89/2
f 73/91/1 69/87/1 72/90/1 75/93/1
f 76/94/2 71/89/2 70/88/2 74/92/2
f 75/93/9 19/21/9 20/22/9 76/94/9
f 80/98/10 75/93/10 76/94/10 78/96/10
f 78/96/2 76/94/2 74/92/2 77/95/2
f 79/97/1 73/91/1 75/93/1 80/98/1
f 79/97/1 93/118/1 91/115/1 73/91/1
f 72/90/1 18/20/1 19/21/1 75/93/1
f 69/87/1 81/99/1 84/102/1 72/90/1
f 76/94/2 20/22/2 17/19/2 71/89/2
f 104/135/2 108/140/2 85/104/2 63/81/2
f 62/79/1 79/97/1 80/98/1 66/84/1
f 68/86/2 78/96/2 77/95/2 64/82/2
f 66/84/7 80/98/7 78/96/7 68/86/7
f 95/120/1 102/131/1 99/128/1 81/99/1
f 83/101/2 100/129/2 98/126/2 82/100/2
f 71/89/2 83/101/2 82/100/2 70/88/2
f 72/90/1 84/102/1 30/32/1 18/20/1
f 82/100/2 96/122/2 90/113/2 70/88/2
f 107/139/3 108/140/3 88/110/3 87/108/3
f 94/119/3 90/113/3 89/111/3 91/114/3
f 92/116/3 94/119/3 91/114/3 93/117/3
f 88/110/3 92/116/3 93/117/3 87/108/3
f 90/113/3 96/122/3 95/121/3 89/111/3
f 77/95/2 92/116/2 88/110/2 64/82/2
f 63/80/4 85/103/4 86/105/4 61/77/4
f 70/88/2 90/113/2 94/119/2 74/92/2
f 62/79/1 87/109/1 93/118/1 79/97/1
f 103/134/1 107/138/1 87/109/1 62/79/1
f 74/92/2 94/119/2 92/116/2 77/95/2
f 73/91/1 91/115/1 89/112/1 69/87/1
f 99/127/8 102/132/8 97/123/8 98/125/8
f 100/129/8 101/130/8 99/127/8 98/125/8
f 100/129/8 48/61/8 49/62/8 101/130/8
f 84/102/1 101/130/1 49/62/1 30/32/1
f 82/100/2 98/126/2 97/124/2 96/122/2
f 96/122/3 97/124/3 102/133/3 95/121/3
f 81/99/1 99/128/1 101/130/1 84/102/1
f 61/78/1 86/106/1 107/138/1 103/134/1
f 86/107/3 85/104/3 108/140/3 107/139/3
f 64/82/2 88/110/2 108/140/2 104/135/2
f 65/83/1 61/78/1 103/134/1 106/137/1
f 65/83/4 59/75/4 58/74/4 67/85/4
f 63/81/2 67/85/2 105/136/2 104/135/2
f 105/136/8 57/73/8 60/76/8 106/137/8
f 67/85/2 58/74/2 57/73/2 105/136/2
f 106/137/1 60/76/1 59/75/1 65/83/1
